<svg width="1000" height="1000" viewBox="0 0 1000 1000" fill="none" xmlns="http://www.w3.org/2000/svg">
<g clip-path="url(#clip0_238_22)">
<g clip-path="url(#clip1_238_22)">
<path fill-rule="evenodd" clip-rule="evenodd" d="M791.312 1125.31C807.402 1124.54 800.93 1096.41 799.776 1086.07C787.037 1048.34 790.032 1007.17 785.022 967.615C781.901 930.693 777.891 893.884 774.517 856.99C767.892 782.097 720.316 629.636 666.023 605.116C659.184 575.119 630.936 547.117 595.196 547.117C570.82 518.274 541.479 497.974 503.847 502.073C488.296 502.78 473.214 519.268 458.313 522.452C449.969 523.602 375.925 520.642 361.093 529.447C350.761 534.75 341.434 544.549 344.472 557.025C349.319 572.139 334.256 555.785 302.835 571.917C238.761 610.384 277.049 661.844 278.746 663.438C238.761 719.048 203.813 764.163 187.643 832.135C177.164 882.598 178.343 934.693 169.563 985.415C166.462 1003 161.706 1019.99 156.56 1037.07C150.982 1059.42 148.27 1115.13 145.195 1115.63C139.595 1117.02 148.432 1128.51 154.366 1128.52C318.891 1155.8 486.01 1129.65 651.419 1125.38C698.035 1123.76 744.7 1123.39 791.312 1125.31Z" fill="white"/>
<path fill-rule="evenodd" clip-rule="evenodd" d="M541.949 668.347C542.026 667.594 543.041 667.595 543.12 668.347L544.281 679.556C545.695 693.246 547.055 706.909 548.042 720.662C549.271 737.813 550.094 754.959 550.49 772.148C551.872 832.014 552.147 891.911 552.263 951.792C560.365 951.231 568.467 950.691 576.573 950.169C582.072 949.814 587.572 949.473 593.073 949.138L607.099 948.288L612.873 947.933C616.775 947.692 621.208 946.71 623.936 950.165C625.029 951.548 625.577 953.346 624.558 954.988C622.21 958.775 618.603 958.643 614.522 958.807C610.673 958.962 606.823 959.115 602.974 959.263C594.724 959.583 586.476 959.885 578.224 960.117C569.564 960.36 560.908 960.557 552.252 960.704C552.164 985.983 551.118 1011.23 549.986 1036.48L549.474 1047.85C548.09 1078.58 546.6 1109.33 544.485 1140.02C544.311 1142.53 540.755 1142.53 540.583 1140.02C538.2 1105.46 536.629 1070.83 535.07 1036.22C533.94 1011.13 533.282 986.03 532.969 960.928C531.824 960.936 530.68 960.951 529.536 960.956C497.046 961.097 464.563 961.238 432.073 960.934C432.127 960.998 432.18 961.062 432.216 961.147C434.567 966.695 434.791 973.776 434.733 979.73C434.668 986.559 433.748 993.305 432.174 999.946C426.537 1023.74 411.996 1045.05 395.436 1062.66L394.895 1063.24C390.989 1067.36 386.507 1071.51 384.109 1076.76C381.659 1082.13 380.808 1088.4 379.599 1094.17L379.458 1094.83L374.731 1116.66C373.229 1123.59 372.803 1133.7 367.314 1138.7C362.192 1143.37 355.407 1140.93 352.997 1134.92C351.114 1130.23 352.989 1125.08 354.104 1120.4L362.838 1083.7C364.273 1077.71 365.841 1071.69 368.939 1066.31C372.111 1060.8 376.763 1056.81 381.509 1052.73C390.496 1044.99 398.746 1036.14 405.723 1026.55C412.698 1016.97 418.659 1006.41 422.839 995.297C424.932 989.736 426.647 983.959 427.83 978.135C428.955 972.609 428.945 966.885 430.148 961.417C430.23 961.04 430.549 960.781 430.915 960.666C430.828 960.422 430.96 960.093 431.302 960.071L457.874 958.364C481.494 956.841 505.113 955.279 528.711 953.494L532.881 953.193C532.558 919.701 532.832 886.203 533.438 852.698C533.992 821.975 534.004 791.242 534.918 760.523C535.372 745.276 536.352 730.065 537.443 714.85C538.558 699.29 540.344 683.861 541.949 668.347ZM292.45 846.491C292.167 844.785 294.314 843.728 295.304 845.289C306.619 863.116 312.074 882.48 314.374 903.343C316.405 921.755 315.806 940.433 314.795 958.893C313.716 978.583 312.457 998.268 311.184 1017.95L309.229 1048.12L304.321 1123.78C303.97 1129.19 302.741 1134.11 298.08 1136.63C297.489 1137.12 296.874 1137.56 296.157 1137.94C293.639 1139.29 290.299 1138.61 288.843 1136.03L289.427 1136.41C289.935 1136.73 289.364 1136.28 287.713 1135.07L286.312 1133.26C285.294 1131.73 284.644 1130.23 284.382 1128.41C283.976 1125.58 284.502 1122.48 284.687 1119.64L287.904 1070.03C290.405 1031.47 293.327 992.913 295.529 954.326C296.554 936.343 297.273 918.341 296.787 900.326C296.302 882.41 295.389 864.191 292.45 846.491ZM390.333 514.399L390.96 514.293C413.434 510.562 437.872 511.26 458.411 522.089C458.581 522.178 458.503 522.461 458.313 522.452L451.702 522.188C430.773 521.369 409.909 520.884 389.331 525.799L387.224 526.307C379.814 528.114 372.075 530.326 366.122 535.218C360.433 539.895 357.6 547.109 354.876 553.751L354.511 554.628C351.747 561.187 348.249 567.408 342.191 571.51C334.345 576.822 324.908 576.171 315.911 576.893C300.07 578.165 287.119 589.641 280.675 603.685C276.773 612.188 275.109 621.722 274.779 631.021C274.61 635.755 274.586 640.674 275.217 645.377C275.418 646.881 277.278 652.359 278.226 652.227C280.334 651.935 282.26 653.034 282.917 654.717C288.122 649.691 293.477 644.809 299.004 640.103C312.781 628.375 327.621 617.745 343.249 608.611C355.176 601.639 367.757 594.732 380.785 589.51C379.753 589.488 378.735 589.693 377.75 590.205C377.319 590.43 376.89 589.889 377.23 589.531C381.334 585.216 386.249 584.601 391.204 585.752C392.262 585.416 393.32 585.091 394.382 584.782C394.911 584.628 395.174 585.356 394.742 585.638L393.525 586.415C398.931 588.225 404.238 591.783 408.44 594.59C420.51 602.653 431.133 612.511 441.903 622.183L443.861 623.937C453.341 632.398 463.062 640.62 473.832 647.407C479.469 650.96 485.391 654.246 491.603 656.691C496.93 658.788 505.604 660.109 508.099 665.737C510.317 668.43 509.39 671.867 506.793 673.68C502.412 678.499 493.649 675.386 488.429 673.379C482.136 670.959 476.039 668.05 470.225 664.639C458.937 658.015 448.529 649.778 438.833 641.017C428.707 631.866 419.156 622.145 409.307 612.707C405.04 608.618 400.871 604.432 396.598 600.349L394.451 598.317C392.27 596.272 389.162 593.085 385.839 591.156C379.58 594.888 373.223 598.467 367.02 602.296C358.361 607.64 349.957 613.37 341.683 619.288C325.753 630.682 310.658 643.443 296.644 657.121C270.943 682.205 249.046 710.849 229.917 741.179L228.464 743.491C217.594 760.851 207.315 778.771 200.026 797.953C192.007 819.062 188.106 841.259 185.988 863.666C183.885 885.912 183.175 908.271 180.825 930.496C178.415 953.291 173.666 975.582 168.265 997.832L166.977 1003.11C162.089 1023.03 157.045 1042.96 154.533 1063.36C153.191 1074.25 152.385 1085.3 152.567 1096.28C152.75 1107.33 154.487 1118.13 155.888 1129.06C156.425 1133.25 152.302 1136.74 148.613 1137.3C144.371 1137.93 140.726 1135.23 139.407 1131.29C135.296 1119.01 134.55 1105.43 134.679 1092.54C134.809 1079.46 136.479 1066.46 138.83 1053.6C143.454 1028.3 150.59 1003.53 156.559 978.531C161.82 956.501 165.35 934.433 167.253 911.864C169.229 888.45 170.412 864.957 174.016 841.711C177.573 818.762 184.267 796.842 194.361 775.917C203.552 756.864 215.009 738.931 227.021 721.549C241.607 700.442 257.627 680.357 275.535 662.057C273.927 661.987 272.275 661.468 270.758 660.523C266.118 657.629 263.956 651.969 263.292 646.802C261.737 634.712 262.112 622.091 265.223 610.271C270.24 591.204 283.262 574.262 302.136 567.389C306.993 565.62 312.157 564.974 317.306 564.847C322.191 564.725 327.527 565.362 332.24 563.814C339.743 561.349 342.959 552.516 345.776 545.82L345.906 545.512C349.518 536.98 353.854 529.667 361.678 524.339C370.025 518.654 380.484 516.068 390.333 514.399ZM603.871 548.143C610.625 545.801 619.068 547.926 625.673 549.972C633.03 552.252 639.83 556.451 645.659 561.439C651.809 566.698 656.891 573.192 660.482 580.448L660.825 581.147C664.105 587.876 667.84 597.115 666.186 604.509C666.139 604.719 666.085 604.921 666.023 605.116C679.422 611.71 691.797 619.969 702.573 630.436C715.121 642.623 725.745 656.492 734.737 671.475C770.446 730.983 776.732 802.452 780.949 870.317L782.001 887.524C784.291 924.681 786.971 961.75 793.933 998.393L794.441 1001.04C801.882 1039.41 812.535 1078.06 811.456 1117.42C811.132 1129.21 793.697 1129.13 793.192 1117.42C791.289 1073.34 780.997 1030.77 774.028 987.38C761.766 911.033 767.91 832.324 750.535 756.743C743.717 727.081 733.155 698.31 718.072 671.834C710.622 658.754 702.098 646.115 692.113 634.832C683.522 625.122 674.593 615.778 664.554 607.616C661.345 610.829 654.936 609.192 653.261 604.509C652.11 601.291 652.446 597.528 651.707 594.157C651.022 591.029 650.077 587.927 648.818 584.981C646.309 579.11 642.626 573.472 638.374 568.72C633.781 563.584 628.502 559.316 622.596 555.793C616.648 552.245 610.144 551.186 603.871 548.594C603.66 548.506 603.64 548.223 603.871 548.143ZM630.109 956.164C630.119 955.855 630.485 955.708 630.71 955.915C633.077 958.093 634.508 961.219 636.251 963.898C638.26 966.987 640.371 970.013 642.584 972.96C647.018 978.866 651.954 984.431 656.929 989.885C661.556 994.956 666.488 999.814 671.604 1004.39C677.147 1009.35 683.358 1013.78 688.394 1019.28C698.902 1030.74 700.6 1046.47 702.817 1061.25L703.06 1062.85C704.412 1071.61 705.623 1080.41 706.715 1089.21C707.246 1093.49 707.776 1097.78 708.209 1102.07L708.341 1103.43C708.727 1107.64 708.831 1111.9 706.416 1115.57C703.831 1119.5 697.955 1120.88 694.46 1117.11C688.457 1110.64 689.583 1099.14 688.802 1090.82C688.157 1083.93 687.425 1077.06 686.605 1070.19L686.189 1066.76C685.223 1058.95 684.439 1050.98 682.651 1043.3C681.075 1036.55 678.072 1031.44 673.146 1026.55C668.182 1021.61 663.025 1017.01 658.443 1011.7C653.584 1006.06 649.201 1000.02 645.251 993.719C641.873 988.326 639.165 982.458 636.685 976.596L636.273 975.619C633.876 969.903 629.922 962.461 630.109 956.164ZM716.785 710.629C716.837 709.832 718.016 709.82 718.033 710.629C718.182 717.487 718.326 724.344 718.468 731.202C719.614 786.461 718.908 841.852 724.454 896.921C727.07 922.887 731.887 948.47 737.46 973.947C740.313 986.983 743.305 999.989 746.148 1013.03C748.918 1025.73 751.889 1038.5 754.087 1051.33C756.247 1063.93 758.181 1076.63 759.049 1089.4L759.157 1091.07C759.53 1097.25 761.314 1106.35 757.908 1111.83C754.216 1117.77 747.149 1117.87 743.194 1112.2C739.48 1106.88 740.403 1097.42 739.747 1091.07C739.08 1084.6 738.375 1078.12 737.574 1071.67C736.012 1059.08 733.953 1046.52 731.812 1034.02C727.352 1007.98 720.883 982.271 716.109 956.274C711.215 929.637 707.737 902.808 707.59 875.687C707.445 848.335 710.341 821.037 711.803 793.745C713.288 766.026 714.976 738.328 716.785 710.629ZM455.64 538.753C457.125 533.757 462.363 530.634 467.473 532.037C472.156 533.323 476.022 539.005 474.191 543.866C472.193 549.17 468.701 553.693 465.758 558.514C463.039 562.969 459.073 566.476 456.303 570.852L459.355 574.141C460.882 575.782 462.414 577.413 463.962 579.016L469.286 584.528C473.432 588.812 477.604 593.073 481.894 597.209C494.508 609.371 507.322 621.134 521.449 631.55C524.665 633.92 527.906 636.277 531.238 638.484L532.48 639.307C534.766 640.803 537.316 642.273 540.077 642.02C546.787 641.404 552.85 634.281 557.461 629.848L557.702 629.617C569.128 618.749 579.709 606.867 588.959 594.091C591.013 591.253 593.001 588.366 594.938 585.445C590.466 580.223 591.534 570.029 591.287 563.696C591.113 559.243 591.1 554.789 591.076 550.333L591.064 549.434C591.009 546.55 590.879 543.783 592.752 541.41C592.861 541.273 593.086 541.277 593.225 541.349C595.79 542.693 596.581 544.942 597.675 547.465L597.789 547.727C599.121 550.755 600.397 553.812 601.687 556.858C603.038 560.047 604.277 563.282 605.533 566.51C606.117 568.011 606.675 569.518 607.22 571.034C607.552 572.001 607.896 572.964 608.249 573.925L608.332 573.999C608.799 574.395 609.194 574.813 609.534 575.244C610.966 575.959 612.103 577.263 612.636 579.179C613.798 583.349 611.394 586.75 609.251 590.059C600.542 603.507 590.615 616.322 579.581 627.947C574.1 633.723 568.335 639.239 562.332 644.471L561.283 645.379C555.891 650.011 550.037 654.399 542.836 655.482C534.408 656.75 527.55 652.56 521.099 647.735L520.455 647.25C514.339 642.622 508.347 637.832 502.541 632.822C490.703 622.606 479.442 611.636 469.447 599.602C459.725 587.896 450.116 574.808 444.123 560.723C443.758 559.865 444.718 558.967 445.471 559.683C448.398 562.469 451.214 565.405 453.998 568.38C454.075 564.001 453.267 559.586 453.716 555.18C454.265 549.825 454.107 543.909 455.64 538.753Z" fill="black"/>
</g>
<path fill-rule="evenodd" clip-rule="evenodd" d="M649.617 231.831C646.002 210.008 657.865 205.48 649.617 184.735C631.285 146.297 581.329 147.953 544.67 144.998C503.782 143.434 462.397 148.821 424.703 165.176C415.699 169.082 407.039 173.676 398.738 178.895C391.559 183.409 392.546 191.991 397.072 196.672C364.434 242.798 383.101 304.712 357.059 353.264C352.249 361.943 345.886 369.726 341.704 378.756C335.348 392.483 334.94 412.151 349.355 421.267C369.657 432.142 380.986 410.61 390.961 441.823C440.78 550.653 540.945 556.782 636.033 500.042C644.26 495.475 652.656 490.314 658.868 483.139C672.969 467.302 671.309 445.032 671.62 425.255C671.794 413.666 671.823 402.074 671.71 390.483C671.266 343.529 655.673 278.397 649.617 231.831Z" fill="white"/>
<path fill-rule="evenodd" clip-rule="evenodd" d="M447.087 101.304C504.5 75.3134 569.618 65.4571 632.245 71.9221C663.156 75.108 693.661 81.9433 722.691 93.0465L725.236 94.0279C732.402 96.7805 740.127 99.5127 745.573 105.116C751.911 111.628 753.689 121.474 749.158 129.518C745.638 135.768 739.31 140.252 732.56 142.644C734.938 144.588 737.194 146.755 739.31 149.175C742.877 153.229 743.148 159.012 739.31 163.011C731.915 170.719 722.319 176.295 711.984 178.968C713.145 184.564 712.518 190.758 710.028 196.336C702.882 212.346 682.754 214.254 667.265 213.303L666.797 213.273L665.936 223.111C665.477 228.352 662.332 232.416 656.996 233.22C656.809 233.248 656.621 233.266 656.434 233.284C664.878 263.76 669.98 295.178 674.689 326.411C677.149 342.714 679.351 359.055 681.46 375.407L682.159 380.858C684.406 398.488 687.214 416.294 688.188 434.054C689.059 450.17 685.979 465.557 676.028 478.562C667.097 490.221 654.918 498.956 641.821 505.44C612.23 520.097 581.085 531.01 548.358 536.074L546.176 536.409C533.543 538.333 520.527 539.955 508.03 536.466C497.05 533.402 485.535 525.498 488.015 512.802C488.848 508.514 494.858 508.327 496.918 511.643L497.393 512.403C499.863 516.314 502.569 519.948 506.879 521.966C511.924 524.34 517.775 525.002 523.289 525.069C538.688 525.246 554.724 521.416 569.552 517.576C597.243 510.402 625.683 498.704 648.365 480.982C658.016 473.451 665.768 464.034 668.501 451.917C671.881 436.979 668.773 420.648 667.237 405.635C664.078 374.656 660.318 343.734 656.351 312.847L655.554 306.67C652.213 280.847 648.703 255.016 647.036 229.043C646.343 228.1 645.875 227.026 645.688 225.848L645.426 224.157C645.201 222.709 645.163 221.383 645.323 220.159C645.332 215.469 645.463 210.807 645.734 206.116C645.78 205.276 645.819 204.435 645.847 203.604C640.96 204.678 636.036 205.547 631.093 206.285C596.344 211.508 561.052 212.816 526.022 210.218C508.545 208.919 491.199 206.687 473.908 203.894C465.107 202.474 456.337 200.904 447.593 199.148C441.274 197.886 435.087 196.177 428.871 194.57C422.458 203.884 418.994 215.347 419.668 226.605C420.427 239.451 429.002 251.101 426.596 264.227C424.338 276.512 413.792 280.32 403.38 283.363L398.952 284.64C395.546 285.632 393.072 286.59 392.455 290.676C391.397 297.692 392.699 305.586 392.97 312.64C393.298 320.983 393.727 329.325 393.925 337.668C394.028 341.984 394.195 346.319 394.187 350.636C394.178 353.7 393.719 355.793 392.53 357.772C393.448 358.922 394.27 360.165 395.001 361.482C395.236 361.912 394.655 362.369 394.31 362.015C393.382 361.052 392.398 360.184 391.36 359.407C390.836 360.053 390.227 360.707 389.515 361.407L389.46 361.333C387.232 363.547 383.693 363.762 380.931 361.407L380.206 360.781C378.184 359.012 376.794 357.539 376.232 354.615C376.204 354.466 376.175 354.316 376.157 354.167C371.018 353.989 365.794 355.203 361.17 357.754C353.84 361.8 348.682 367.564 345.631 374.683C346.847 376.103 348.27 377.374 349.927 378.439C350.161 378.598 349.955 378.943 349.702 378.822C348.008 378.028 346.491 377.047 345.134 375.898C344.039 378.7 343.271 381.709 342.803 384.894C341.155 396.143 344.095 409.885 354.28 416.294C358.689 419.069 363.725 420.573 368.949 420.592C371.494 420.6 373.695 420.171 376.167 419.564C377.842 419.153 379.509 418.555 381.259 418.555C382.757 418.555 384.142 418.929 385.425 419.676L385.069 419.707C384.205 419.788 384.371 419.825 385.575 419.825C389.319 419.985 391.462 423.778 389.74 427.076L389.515 427.585C389.467 427.688 389.427 427.773 389.395 427.841L389.259 428.715C389.245 428.799 389.231 428.884 389.216 428.972L389.164 429.149C389.155 429.178 389.144 429.206 389.132 429.234L394.748 437.78C401.633 448.236 408.672 458.651 416.682 468.201C422.299 474.9 428.253 481.467 434.544 487.549C440.198 493.015 446.975 495.649 453.379 499.947C456.796 502.226 457.797 507 454.69 510.074C445.571 519.108 432.662 511.933 425.182 504.59C418.105 497.63 411.992 489.259 406.722 480.879C397.37 465.978 389.928 450.133 386.67 432.933C385.313 434.176 383.581 434.951 381.83 435.558C378.32 436.773 374.453 437.277 370.746 437.408C363.641 437.642 356.527 435.923 350.133 432.877C324.118 420.498 320.298 383.428 336.203 361.566C334.059 355.359 332.861 348.625 331.559 342.882L330.967 340.315C324.391 311.64 319.975 281.45 331.635 253.353C333.133 249.728 334.818 246.196 336.812 242.814C338.412 240.096 341.165 237.199 341.923 234.107C343.608 227.315 333.208 220.177 330.175 214.787C326.608 208.462 326.102 200.997 330.961 195.214C331.579 194.486 332.252 193.812 332.983 193.225C328.377 184.891 328.162 174.409 334.228 166.187C338.216 160.769 344.301 156.976 350.947 155.827C355.01 155.126 359.897 155.388 364.362 156.639C388.813 133.984 416.71 115.056 447.087 101.304ZM353.193 384.782C359.719 379.037 366.927 376.028 375.821 376.785C384.761 377.55 395.526 381.242 400.777 388.893C404.925 394.938 396.472 403.804 390.387 399.263C384.845 395.124 381.146 390.453 374.267 388.23C368.087 386.24 360.439 384.96 353.97 386.1C353.259 386.221 352.548 385.343 353.193 384.782Z" fill="black"/>
<path fill-rule="evenodd" clip-rule="evenodd" d="M543.267 465.496C535.963 462.482 529.446 457.455 524.682 451.033C523.026 448.8 522.596 446.443 522.944 444.286C523.334 441.862 524.752 439.665 526.686 438.191C528.626 436.712 531.053 435.983 533.399 436.355C535.438 436.678 537.467 437.807 539.073 440.148L539.409 440.616C542.241 444.492 545.932 447.673 550.138 449.722C554.192 451.698 558.725 452.62 563.417 452.084C572.352 451.063 578.511 446.175 585.056 439.538C585.868 438.7 586.68 437.836 587.496 436.958C588.011 436.161 588.726 435.65 589.52 435.381C590.401 435.083 591.398 435.1 592.311 435.423C593.192 435.733 593.98 436.323 594.508 437.107C595.01 437.852 595.294 438.773 595.202 439.832C594.603 446.71 591.047 452.849 585.997 457.67C580.388 463.023 572.953 466.727 565.953 468.026C558.241 469.457 550.383 468.432 543.267 465.496ZM569.591 359.379C577.795 364.423 590.297 376.186 581.47 388.691C571.081 399.718 556.123 387.075 548.751 381.358C541.916 376.926 534.237 388.323 540.578 393.498C593.843 433.385 615.459 360.698 573.74 353.448C569.147 352.649 567.441 357.819 569.591 359.379ZM474.14 312.98C475.047 301.598 492.184 299.014 493.888 310.276C495.415 320.365 493.618 329.632 489.125 338.715C484.832 347.393 474.043 343.344 473.227 335.443C472.133 324.851 473.576 320.059 474.14 312.98ZM604.59 307.941C606.979 304.776 610.429 302.615 614.562 303.836C627.475 307.653 623.669 326.196 619.134 335.222C616.67 340.123 608.705 341.366 605.105 337.051C599.238 330.013 596.428 315.958 603.887 309.026C604.089 308.667 604.314 308.306 604.59 307.941ZM488.943 263.178L490.983 262.817C497.293 261.713 505.139 260.653 509.603 265.784C511.971 268.505 512.786 273.563 509.603 276.167C504.005 280.75 497.817 278.974 491.109 279.362C485.581 279.683 480.268 280.608 474.943 282.148C463.26 285.525 453.742 291.69 443.764 298.46C442.455 299.348 441.119 297.654 441.743 296.416C447.503 285.005 458.665 275.632 469.845 269.918C475.812 266.869 482.342 264.339 488.943 263.178ZM592.819 258.067L594.38 258.39C611.37 261.982 633.444 269.158 641.489 286.038C641.796 288.424 641.472 288.936 641.208 289.27L641.121 289.381C640.904 289.667 640.731 290.06 639.708 290.385C639.424 290.317 639.137 290.244 638.847 290.167C635.16 289.19 632.242 287.843 629.417 286.446L626.354 284.919C622.801 283.157 619.216 281.459 615.417 280.205C607.309 277.53 598.97 275.646 590.501 274.64C588.665 274.422 586.898 273.795 585.504 272.722C584.18 271.702 583.169 270.291 582.708 268.415C582.11 265.987 582.282 264.149 583.57 261.959C584.538 260.314 585.924 259.174 587.515 258.52C589.137 257.852 590.983 257.695 592.819 258.067Z" fill="black"/>
<path fill-rule="evenodd" clip-rule="evenodd" d="M646.673 364.071C640.124 372.823 627.982 375.61 616.784 374.648C592.63 372.335 585.029 345.048 584.237 323.839C600.433 328.371 582.867 296.272 638.233 292.742C657.75 291.124 652.369 302.849 660.992 311.417C660.815 329.397 657.807 348.934 646.673 364.071ZM531.63 343.41C517.37 409.839 439.283 394.038 431.08 334.157C438.655 328.839 436.66 315.708 446.07 310.95C460.983 301.472 479.626 301.877 496.562 302.1C518.21 303.579 524.379 312.499 535.498 322.232C534.963 328.732 533.421 336.436 531.63 343.41ZM677.606 281.74C676.805 281.608 676.004 281.483 675.202 281.366C674.577 281.013 673.843 280.741 672.988 280.577C671.038 280.085 669.102 279.753 667.168 279.574C639.415 273.361 575.209 282.182 572.56 305.742C563.722 308.676 556.074 306.048 545.831 306.31C538.033 273.89 403.233 278.466 396.75 298.011C396.725 298.005 396.701 297.999 396.676 297.991C390.447 296.073 381.263 296.536 374.133 296.232C358.91 295.915 343.668 297.264 328.773 300.459C300.881 304.868 262.814 310.03 282.213 344.678C282.217 344.684 282.22 344.691 282.224 344.696L282.227 344.694C285.57 348.102 291.244 345.357 291.455 340.743C284.933 324.328 299.664 322.357 310.998 317.64C339.2 307.562 367.912 306.164 397.08 309.282C399.274 311.852 402.604 314.093 406.123 315.266C425.625 318.486 415.347 332.876 427.674 334.969C425.41 385.132 486.633 412.513 522.106 379.538C536.27 365.763 539.646 345.357 542.93 326.964C544.666 326.576 545.77 325.632 546.415 324.382C550.591 320.234 553.214 316.405 561.472 315.266C569.729 314.128 576.086 316.412 576.945 317.112C577.162 317.546 577.395 317.982 577.665 318.417C578.043 319.067 578.556 319.584 579.14 319.992C570.986 369.943 609.969 401.534 649.324 375.626C666.424 359.625 670.037 335.127 670.751 313.261C673.069 311.869 674.537 309.173 673.735 305.782C672.629 301.109 675.222 297.062 679.352 295.03C684.718 292.392 683.769 282.755 677.606 281.74Z" fill="black"/>
</g>
<defs>
<clipPath id="clip0_238_22">
<rect width="1000" height="1000" fill="white"/>
</clipPath>
<clipPath id="clip1_238_22">
<rect width="681" height="610" fill="white" transform="translate(133 529.723)"/>
</clipPath>
</defs>
</svg>
